<svg width="27" height="28" viewBox="0 0 27 28" fill="none" xmlns="http://www.w3.org/2000/svg">
<g clip-path="url(#clip0_197_523)">
<path d="M13.6676 27.5525C6.28224 27.5525 0.28526 21.5666 0.340961 14C0.396662 6.43337 6.00478 0.44751 13.6676 0.44751C21.3309 0.44751 26.9942 6.54614 26.9942 14C26.9942 21.4539 21.0529 27.5525 13.6676 27.5525ZM17.6099 25.463L13.8342 15.1292L10.2802 25.689C12.8904 26.3106 14.6671 26.4794 17.6099 25.463ZM8.39264 24.8987L2.72882 9.14387C1.95109 10.8379 1.78503 12.2498 1.67362 14C1.72932 18.6301 4.28325 22.8653 8.39264 24.8987ZM25.6064 14C25.6615 11.0073 24.3294 8.63566 24.218 8.29684C24.3294 10.6124 23.9957 11.7977 23.6074 13.0969L19.7203 24.4471C24.6069 21.4539 25.5501 16.9927 25.6615 14H25.6064ZM13.2792 13.4918L11.3911 8.2402L10.0028 8.12744C9.44783 7.73198 9.78048 7.111 10.1693 7.111C12.6681 7.28041 14.0559 7.28041 16.5552 7.111C17.1663 7.111 17.3324 8.01468 16.6104 8.12744L15.2777 8.2402L19.6083 21.2278L21.6625 14.1128C21.7739 11.0073 20.9405 10.6685 19.8301 8.4096C18.9415 6.6589 19.8858 4.96483 21.6073 4.90872C20.2185 3.55347 17.3871 1.85941 13.6665 1.80276C9.94602 1.74611 6.00374 3.66623 3.67158 7.28041L7.78097 7.16764C8.28071 7.3937 8.05843 8.12744 7.78097 8.18408L6.33742 8.29684L10.6686 21.5105L13.2792 13.4918Z" fill="#21759B"/>
</g>
<defs>
<clipPath id="clip0_197_523">
<rect width="26.6532" height="27.105" fill="white" transform="translate(0.339966 0.44751)"/>
</clipPath>
</defs>
</svg>
